<svg width="32" height="22" viewBox="0 0 32 22" fill="none" xmlns="http://www.w3.org/2000/svg">
<path d="M7.08629 1.14788C7.68247 -0.38263 9.77208 -0.382626 10.3683 1.14789L17.324 19.0047C17.7939 20.211 16.9376 21.5273 15.683 21.5273H1.77156C0.516934 21.5273 -0.339312 20.211 0.130583 19.0047L7.08629 1.14788Z" fill="url(#paint0_linear_32_229)"/>
<path d="M18.3273 14.3442C17.8453 14.3442 17.4491 14.7315 17.5068 15.2042C17.6431 16.3203 18.0433 17.3935 18.6802 18.3349C19.4794 19.5162 20.6152 20.4368 21.9441 20.9805C23.273 21.5242 24.7353 21.6664 26.1461 21.3892C27.5569 21.1121 28.8528 20.428 29.8699 19.4234C30.887 18.4188 31.5796 17.1389 31.8603 15.7456C32.1409 14.3522 31.9968 12.9079 31.4464 11.5954C30.8959 10.2829 29.9638 9.16105 28.7678 8.37177C27.5718 7.58249 26.1657 7.16121 24.7273 7.16121V14.3442H18.3273Z" fill="url(#paint1_linear_32_229)"/>
<path d="M24.7273 14.3661C23.2889 14.3661 21.8828 13.9448 20.6868 13.1555C19.4908 12.3662 18.5586 11.2444 18.0081 9.93185C17.4577 8.61933 17.3137 7.17506 17.5943 5.78169C17.8749 4.38832 18.5676 3.10843 19.5847 2.10386C20.6018 1.0993 21.8977 0.415181 23.3084 0.138023C24.7192 -0.139135 26.1815 0.00311196 27.5104 0.546779C28.8393 1.09045 29.9752 2.01111 30.7743 3.19236C31.4112 4.13376 31.8114 5.20698 31.9477 6.32311C32.0054 6.79574 31.6093 7.18303 31.1273 7.18303L24.7273 7.18303V14.3661Z" fill="url(#paint2_linear_32_229)"/>
<defs>
<linearGradient id="paint0_linear_32_229" x1="0.18754" y1="9.45978" x2="31.9409" y2="9.73928" gradientUnits="userSpaceOnUse">
<stop stop-color="#E65053"/>
<stop offset="1" stop-color="#FABC3C"/>
</linearGradient>
<linearGradient id="paint1_linear_32_229" x1="0.18754" y1="9.45978" x2="31.9409" y2="9.73928" gradientUnits="userSpaceOnUse">
<stop stop-color="#E65053"/>
<stop offset="1" stop-color="#FABC3C"/>
</linearGradient>
<linearGradient id="paint2_linear_32_229" x1="0.18754" y1="9.45978" x2="31.9409" y2="9.73928" gradientUnits="userSpaceOnUse">
<stop stop-color="#E65053"/>
<stop offset="1" stop-color="#FABC3C"/>
</linearGradient>
</defs>
</svg>
