<svg width="36" height="24" viewBox="0 0 36 24" fill="none" xmlns="http://www.w3.org/2000/svg">
<path d="M7.90026 1.27973C8.56491 -0.426581 10.8945 -0.426577 11.5592 1.27974L19.3139 21.1877C19.8377 22.5325 18.8831 24 17.4844 24H1.97505C0.576312 24 -0.378287 22.5325 0.145582 21.1877L7.90026 1.27973Z" fill="url(#paint0_linear_32_188)"/>
<path d="M20.4324 15.9919C19.8951 15.9919 19.4534 16.4237 19.5178 16.9506C19.6697 18.1949 20.1159 19.3914 20.8259 20.441C21.7169 21.7579 22.9832 22.7843 24.4647 23.3904C25.9463 23.9965 27.5766 24.1551 29.1494 23.8461C30.7222 23.5371 32.1669 22.7744 33.3009 21.6545C34.4348 20.5345 35.207 19.1076 35.5199 17.5542C35.8327 16.0008 35.6722 14.3906 35.0585 12.9273C34.4448 11.464 33.4056 10.2133 32.0722 9.33339C30.7388 8.45345 29.1712 7.98379 27.5676 7.98379V15.9919H20.4324Z" fill="url(#paint1_linear_32_188)"/>
<path d="M27.5676 16.0162C25.9639 16.0162 24.3963 15.5465 23.0629 14.6666C21.7296 13.7867 20.6903 12.536 20.0767 11.0727C19.463 9.60939 19.3024 7.99922 19.6153 6.4458C19.9281 4.89238 20.7003 3.46548 21.8343 2.34552C22.9682 1.22557 24.4129 0.462871 25.9858 0.153877C27.5586 -0.155117 29.1888 0.00346935 30.6704 0.609584C32.152 1.2157 33.4183 2.24212 34.3092 3.55905C35.0193 4.60859 35.4655 5.80508 35.6174 7.04941C35.6817 7.57633 35.2401 8.00811 34.7027 8.00811L27.5676 8.00811V16.0162Z" fill="url(#paint2_linear_32_188)"/>
<defs>
<linearGradient id="paint0_linear_32_188" x1="0.209082" y1="10.5464" x2="35.6098" y2="10.858" gradientUnits="userSpaceOnUse">
<stop stop-color="#E65053"/>
<stop offset="1" stop-color="#FABC3C"/>
</linearGradient>
<linearGradient id="paint1_linear_32_188" x1="0.209082" y1="10.5464" x2="35.6098" y2="10.858" gradientUnits="userSpaceOnUse">
<stop stop-color="#E65053"/>
<stop offset="1" stop-color="#FABC3C"/>
</linearGradient>
<linearGradient id="paint2_linear_32_188" x1="0.209082" y1="10.5464" x2="35.6098" y2="10.858" gradientUnits="userSpaceOnUse">
<stop stop-color="#E65053"/>
<stop offset="1" stop-color="#FABC3C"/>
</linearGradient>
</defs>
</svg>
